<svg width="107" height="34" viewBox="0 0 107 34" fill="none" xmlns="http://www.w3.org/2000/svg">
<path d="M15.3662 33.3135C13.9111 31.4775 12.6807 29.3291 11.6748 26.8682C10.6689 24.4072 10.166 21.8584 10.166 19.2217C10.166 16.8975 10.542 14.6709 11.2939 12.542C12.1729 10.0713 13.5303 7.61035 15.3662 5.15918H17.2559C16.0742 7.19043 15.293 8.64063 14.9121 9.50977C14.3164 10.8574 13.8477 12.2637 13.5059 13.7285C13.0859 15.5547 12.876 17.3906 12.876 19.2363C12.876 23.9336 14.3359 28.626 17.2559 33.3135H15.3662ZM23.9198 19.71C21.4298 19.71 19.3598 21.75 19.3598 24.27C19.3598 26.79 21.4298 28.83 23.9198 28.83C26.4698 28.83 28.5098 26.79 28.5098 24.27C28.5098 21.75 26.4698 19.71 23.9198 19.71ZM23.9198 27.3C22.2698 27.3 20.8898 25.95 20.8898 24.27C20.8898 22.59 22.2698 21.24 23.9198 21.24C25.6298 21.24 26.9798 22.59 26.9798 24.27C26.9798 25.95 25.6298 27.3 23.9198 27.3ZM34.9365 16.4824C34.9365 15.457 35.2979 14.583 36.0205 13.8604C36.7529 13.1377 37.627 12.7764 38.6426 12.7764C39.668 12.7764 40.542 13.1377 41.2646 13.8604C41.9971 14.583 42.3633 15.457 42.3633 16.4824C42.3633 17.5078 41.9971 18.3867 41.2646 19.1191C40.542 19.8418 39.668 20.2031 38.6426 20.2031C37.627 20.2031 36.7529 19.8418 36.0205 19.1191C35.2979 18.3867 34.9365 17.5078 34.9365 16.4824ZM41.543 4.33887H39.4189L36.0352 0.237305H39.5654L41.543 4.33887ZM59.4287 19.2217C59.4287 21.6143 58.8232 23.543 57.6123 25.0078C56.3135 26.5703 54.4922 27.3516 52.1484 27.3516C49.7949 27.3516 47.9688 26.5752 46.6699 25.0225C45.459 23.5771 44.8535 21.6436 44.8535 19.2217H47.5635C47.5635 20.8916 47.9004 22.249 48.5742 23.2939C49.3848 24.5439 50.5762 25.1689 52.1484 25.1689C53.7109 25.1689 54.8926 24.5439 55.6934 23.2939C56.377 22.2295 56.7188 20.8721 56.7188 19.2217H59.4287ZM61.5088 20.5547V17.9033H69.6094V20.5547H61.5088ZM74.2529 33.3135H72.3633C75.2832 28.626 76.7432 23.9336 76.7432 19.2363C76.7432 17.4004 76.5332 15.5791 76.1133 13.7725C75.7812 12.3076 75.3174 10.9014 74.7217 9.55371C74.3408 8.6748 73.5547 7.20996 72.3633 5.15918H74.2529C76.0889 7.61035 77.4463 10.0713 78.3252 12.542C79.0771 14.6709 79.4531 16.8975 79.4531 19.2217C79.4531 21.8584 78.9453 24.4072 77.9297 26.8682C76.9238 29.3291 75.6982 31.4775 74.2529 33.3135ZM92.9271 28.26C92.7271 26.96 92.1471 25.56 91.1871 24.06C90.2471 22.56 88.9071 21.15 87.1671 19.83C85.4071 18.49 83.7071 17.66 82.0671 17.34V16.08C83.7271 15.7 85.3371 14.96 86.8971 13.86C88.4571 12.76 89.7771 11.45 90.8571 9.93C91.9371 8.39 92.6271 6.82 92.9271 5.22H94.1871C94.3671 6.24 94.7271 7.27 95.2671 8.31C95.8271 9.35 96.5371 10.35 97.3971 11.31C98.2571 12.25 99.2071 13.1 100.247 13.86C101.827 14.98 103.447 15.72 105.107 16.08V17.34C103.987 17.56 102.837 18.01 101.657 18.69C100.497 19.37 99.4171 20.17 98.4171 21.09C97.4171 22.01 96.5971 22.98 95.9571 24C94.9771 25.56 94.3871 26.98 94.1871 28.26H92.9271ZM93.3471 27.54H93.7671C93.8671 26.5 94.0271 25.46 94.2471 24.42C94.4871 23.36 94.7571 22.38 95.0571 21.48C95.3771 20.58 95.7071 19.84 96.0471 19.26C96.7271 18.88 97.5371 18.53 98.4771 18.21C99.4371 17.89 100.427 17.62 101.447 17.4C102.487 17.18 103.447 17.04 104.327 16.98V16.56C103.447 16.48 102.477 16.33 101.417 16.11C100.377 15.87 99.3771 15.59 98.4171 15.27C97.4571 14.93 96.6671 14.58 96.0471 14.22C95.7071 13.62 95.3771 12.88 95.0571 12C94.7571 11.1 94.4871 10.14 94.2471 9.12C94.0271 8.08 93.8671 7.04 93.7671 6H93.3471C93.2671 6.94 93.1171 7.92 92.8971 8.94C92.6971 9.94 92.4371 10.9 92.1171 11.82C91.7971 12.74 91.4471 13.54 91.0671 14.22C90.4271 14.58 89.6371 14.93 88.6971 15.27C87.7571 15.59 86.7671 15.87 85.7271 16.11C84.6871 16.33 83.7071 16.48 82.7871 16.56V16.98C83.7071 17.04 84.6771 17.18 85.6971 17.4C86.7171 17.62 87.6971 17.89 88.6371 18.21C89.5771 18.53 90.3871 18.88 91.0671 19.26C91.4471 19.9 91.7871 20.69 92.0871 21.63C92.4071 22.55 92.6771 23.53 92.8971 24.57C93.1171 25.59 93.2671 26.58 93.3471 27.54Z" fill="white"/>
</svg>
